<svg height='300px' width='300px' fill="#FFA726" xmlns="http://www.w3.org/2000/svg" xmlns:xlink="http://www.w3.org/1999/xlink" version="1.1" x="0px" y="0px" viewBox="0 0 52 52" enable-background="new 0 0 52 52" xml:space="preserve">
    <g>
        <g>
            <path fill="#FFA726" d="M31.000288,11.0276184h7.360899c-0.0773926-0.0994263-0.1500244-0.2017822-0.2408447-0.2926025l-7.8300152-7.8300171    c-0.0892334-0.0908203-0.1912842-0.1635742-0.2900391-0.2409668v7.3635864    C30.000288,10.5788879,30.4485302,11.0276184,31.000288,11.0276184z"></path>
        </g>
        <g>
            <path fill="#9575CD" d="M29.0270214,30.4508362c-0.1914063,2.5595093,0.6259155,5.0401611,2.3009644,6.9854126    c1.6749859,1.9448242,4.0068951,3.1210938,6.5668316,3.3115845c0.0244141,0.0018921,0.0488281,0.0028076,0.0722656,0.0028076    c0.498291,0,0.9196167-0.3847046,0.9571533-0.8895874c0.0394287-0.5292358-0.3574829-0.9899902-0.8867798-1.0294189    c-2.0475464-0.1529541-3.9130859-1.093689-5.2531128-2.6495361c-1.3400249-1.5558472-1.9940777-3.5405273-1.8411236-5.588623    c0.1998291-2.6831665,1.76721-4.9921265,4.0389996-6.2064819l-1.0792847,1.9312134    c-0.2590332,0.4630737-0.0928955,1.048645,0.3696899,1.3076172c0.149231,0.0825806,0.3096924,0.1220093,0.4682617,0.1220093    c0.3369141,0,0.6634521-0.1773682,0.8398438-0.4921875l2.2097168-3.9535522    c0.2061768-0.2133789,0.3233643-0.5072632,0.2686157-0.8219604c-0.0060425-0.034729-0.0274048-0.0614624-0.0369873-0.0946655    c-0.0186768-0.0847778-0.0466919-0.1679077-0.0887451-0.2463989c-0.1548462-0.2885742-0.4457397-0.4785767-0.7723389-0.5043945    l-4.5540161-0.3561401c-0.5245361-0.041748-0.9918804,0.3537598-1.0331402,0.8830566    c-0.0413208,0.5292358,0.3537598,0.9918823,0.8829937,1.0331421l0.7026367,0.0549316    C30.8204174,24.860199,29.2491283,27.4709167,29.0270214,30.4508362z"></path>
        </g>
        <g>
            <path fill="#FFA726" d="M28.000288,10.0276184V2.0249939H6.0003481c-1.6600342,0-3,1.3499756-3,3v41.9500122c0,1.6499634,1.3399658,3,3,3h30    c1.6499634,0,3-1.3500366,3-3v-4.4180298c-0.3234253,0.1220093-0.6704712,0.1937866-1.0332642,0.1937866h-0.0800781    l-0.1523438-0.0092773c-3.0800781-0.2290039-5.8984356-1.6499023-7.9218731-4    c-2.0244141-2.3500977-3.0117188-5.347168-2.7802734-8.4394531c0.1904297-2.546875,1.1923828-4.9082031,2.8310547-6.7783203    c-0.2255859-0.4667969-0.3251953-0.9863281-0.2841797-1.5166016c0.1220703-1.5332031,1.4179688-2.7314453,2.95117-2.7314453    l0.2363281,0.0092773l4.5507813,0.3554688c0.3223877,0.0256348,0.6237793,0.1182251,0.9117432,0.2393188    c0.2828979,0.1189575,0.5389404,0.2827148,0.7709351,0.4821167v-0.9031372v-6.4310913H31.000288    C29.3459911,13.0276184,28.000288,11.6819153,28.000288,10.0276184z M23.1243114,41.0007629H8.1243105v-2h15.000001V41.0007629z     M23.1243114,34.334259H8.1243105v-2h15.000001V34.334259z M23.1243114,27.6672668H8.1243105v-2h15.000001V27.6672668z     M23.1243114,21.0007629H8.1243105v-2h15.000001V21.0007629z"></path>
        </g>
        <g>
            <path fill="#9575CD" d="M48.9753838,31.5370789c0.1801758-2.5609131-0.647522-5.0377808-2.3309937-6.9755859    c-1.6834717-1.9377441-4.0200806-3.1036987-6.5809326-3.2834473c-0.543335-0.0342407-0.9899902,0.3617554-1.0256348,0.8914795    c-0.0375366,0.5292969,0.3612671,0.9885864,0.8905029,1.0256958c2.0485229,0.144043,3.9187622,1.0767822,5.2653198,2.6265259    c1.3466187,1.5502319,2.0090942,3.5321045,1.8655396,5.5802002c-0.1884766,2.6760254-1.7365723,4.9864502-3.9915771,6.213562    l1.0515747-1.9016724c0.2571411-0.4644775,0.0881958-1.0491333-0.3753662-1.3057861    c-0.463562-0.2570801-1.0490723-0.0886841-1.3062134,0.3758545l-2.1616821,3.9081421    c-0.1488037,0.1416016-0.2545776,0.3184204-0.289856,0.5241089l-0.6000977,1.085022l6.0526123,0.4466553    c0.0234375,0.0018921,0.0478516,0.0028076,0.0712891,0.0028076c0.498291,0,0.9196777-0.3851929,0.9572144-0.8900146    c0.0393677-0.5292969-0.3585205-0.9900513-0.8877563-1.0289917l-0.734314-0.0543213    C47.1933403,37.1581726,48.7651176,34.5301819,48.9753838,31.5370789z"></path>
        </g>
    </g>
</svg>