<svg height='300px' width='300px' fill="#000000" xmlns="http://www.w3.org/2000/svg" xmlns:xlink="http://www.w3.org/1999/xlink" version="1.1" x="0px" y="0px" viewBox="0 0 100 100" style="enable-background:new 0 0 100 100;" xml:space="preserve">
    <path fill="#9575CD" d="M26,53c-9.941,0-18,8.059-18,18s8.059,18,18,18s18-8.059,18-18S35.941,53,26,53z M36.5,74H29v7.5c0,0.828-0.672,1.5-1.5,1.5  h-3c-0.828,0-1.5-0.672-1.5-1.5V74h-7.5c-0.828,0-1.5-0.672-1.5-1.5v-3c0-0.828,0.672-1.5,1.5-1.5H23v-7.5  c0-0.828,0.672-1.5,1.5-1.5h3c0.828,0,1.5,0.672,1.5,1.5V68h7.5c0.828,0,1.5,0.672,1.5,1.5v3C38,73.328,37.328,74,36.5,74z"></path>
    <path fill="#FFA726" d="M81.5,35H92v15H81.5c-4.135,0-7.5-3.365-7.5-7.5S77.365,35,81.5,35z"></path>
    <path fill="#FFA726" d="M92,56v12c0,3.314-2.686,6-6,6H49.793C51.896,57.164,36.461,43.541,20,47.787V14c0-1.657,1.343-3,3-3h63  c3.314,0,6,2.686,6,6v12H81.5C74.056,29,68,35.056,68,42.5S74.056,56,81.5,56H92z"></path>
</svg>