<svg height='300px' width='300px'  fill="#000000" xmlns="http://www.w3.org/2000/svg" xmlns:xlink="http://www.w3.org/1999/xlink" version="1.1" x="0px" y="0px" viewBox="0 0 100 100" style="enable-background:new 0 0 100 100;" xml:space="preserve">
    <path fill="#FFA726" d="M75.5,56H86v15H75.5c-4.135,0-7.5-3.365-7.5-7.5S71.365,56,75.5,56z"></path>
    <path fill="#FFA726" d="M86,77v9c0,3.314-2.686,6-6,6H17c-1.657,0-3-1.343-3-3V38c0-1.657,1.343-3,3-3h63c3.314,0,6,2.686,6,6v9l-9.899,0  c-7.047,0-13.351,5.139-14.035,12.152C61.282,70.199,67.611,77,75.5,77H86z"></path>
    <path fill="#9575CD" d="M24.996,30.5L63.622,8.2c0.717-0.414,1.635-0.168,2.049,0.549L78.227,30.5h-6.929l-5.573-9.653  c-2.963,1.849-6.678,0.799-8.349-2.112L36.998,30.5H24.996z"></path>
</svg>